# xmcd
#
# Track frame offsets: 
#        150
#        24022
#        44529
#        57546
#        72694
#        86797
#        105682
#        123272
#        137747
#        149653
#        165596
#        180021
#        192533
#        205538
#        216883
#        229668
#        243783
#        256583
#        268133
#        288158
#
# Disc length: 4052 seconds
#
# Revision: 0
# Processed by: cddbd v1.5.2PL0 Copyright (c) Steve Scherf et al.
# Submitted via: ExactAudioCopy v0.95b4
#
DISCID=230fd214
DTITLE=Nino Bravo - 20 Super Exitos
DYEAR=2000
DGENRE=Ballad
TTITLE0=Cartas Amarillas (Duo con Sergio Dalma)
TTITLE1=Un beso y una flor
TTITLE2=Te quiero, te quiero
TTITLE3=Puerta de amor
TTITLE4=Noelia
TTITLE5=Libre
TTITLE6=Cartas Amarillas
TTITLE7=Elizabeth
TTITLE8=Es el viento
TTITLE9=América
TTITLE10=Te acuerdas María
TTITLE11=Mi gran amor
TTITLE12=Mis noches sin ti
TTITLE13=Carolina
TTITLE14=Mi querida mamá
TTITLE15=Como todos
TTITLE16=No debo pensar en ti
TTITLE17=Tu cambiarás
TTITLE18=Mi tierra
TTITLE19=El amor
EXTD=
EXTT0=
EXTT1=
EXTT2=
EXTT3=
EXTT4=
EXTT5=
EXTT6=
EXTT7=
EXTT8=
EXTT9=
EXTT10=
EXTT11=
EXTT12=
EXTT13=
EXTT14=
EXTT15=
EXTT16=
EXTT17=
EXTT18=
EXTT19=
PLAYORDER=
